<svg width="116" height="32" viewBox="0 0 116 32" fill="none" xmlns="http://www.w3.org/2000/svg">
<g id="Frame 3">
<path id="Subtract" fill-rule="evenodd" clip-rule="evenodd" d="M1.12526 3.5953C0 5.4059 0 7.8706 0 12.8V19.2C0 24.1294 0 26.5941 1.12526 28.4047C1.75491 29.4178 2.61879 30.2696 3.64627 30.8905C4.44686 31.3742 5.37354 31.647 6.5785 31.8009C6.58446 31.8017 6.58981 31.7971 6.58981 31.7912L6.60478 8.46665C6.60512 7.93804 6.98731 7.48465 7.51431 7.38768L9.55047 7.01299C10.0628 6.91871 10.536 7.30653 10.5357 7.82043L10.5323 13.0317C10.5695 13.394 10.6496 13.7484 10.7822 14.0888C11.0225 14.7054 11.3988 15.263 11.8895 15.7298C12.3802 16.1967 12.9758 16.5636 13.6422 16.8096C14.3087 17.0557 15.0329 17.176 15.7736 17.1638C16.5143 17.1516 17.2569 17.007 17.9591 16.7384C18.6613 16.4698 19.3093 16.0824 19.8661 15.5983C20.4229 15.1141 20.8775 14.5428 21.2041 13.9169C21.4979 13.3539 21.5976 12.7122 21.6487 12.0995L21.6467 7.82195C21.6464 7.30602 22.1198 6.91566 22.6348 7.00719L24.7354 7.38057C25.2512 7.47224 25.6264 7.91471 25.6267 8.43143L25.6339 23.5459C25.6341 23.9762 25.2126 24.2843 24.7951 24.1591L22.5251 23.4782C22.0076 23.323 21.6538 22.8525 21.6536 22.3192L21.6519 18.8888C21.6519 18.8808 21.6428 18.8762 21.6362 18.8808C20.9093 19.3851 20.1164 19.8038 19.2787 20.1242C18.0701 20.5866 16.7919 20.8353 15.5171 20.8564C14.2422 20.8774 12.9957 20.6703 11.8487 20.2468C11.393 20.0785 10.9565 19.8775 10.543 19.6458C10.5364 19.6421 10.5281 19.6468 10.5281 19.6544L10.5202 31.9838C10.5202 31.9892 10.5246 31.9936 10.53 31.9937C11.2743 32 12.088 32 12.9815 32H19.4722C24.4715 32 26.9711 32 28.8074 30.8905C29.8349 30.2696 30.6987 29.4178 31.3284 28.4047C32.4536 26.5941 32.4536 24.1294 32.4536 19.2V12.8C32.4536 7.8706 32.4536 5.4059 31.3284 3.5953C30.6987 2.58218 29.8349 1.73038 28.8074 1.10953C26.9711 0 24.4715 0 19.4722 0H12.9815C7.98218 0 5.48253 0 3.64627 1.10953C2.61879 1.73038 1.75491 2.58218 1.12526 3.5953Z" fill="black"/>
<g id="Mozak">
<path d="M40.9102 25.3504V6.27344L45.9469 6.30016L50.8764 21.5029H50.9032L55.7524 6.27344H60.7623V25.3504H57.6545V10.014H57.5741L52.5642 25.3504H49.135L44.0983 10.014H44.0179V25.3504H40.9102Z" fill="black"/>
<path d="M69.4643 25.7244C65.3653 25.7244 62.3111 22.7854 62.3111 18.457C62.3111 14.1286 65.3653 11.1629 69.4643 11.1629C73.5365 11.1629 76.5907 14.1286 76.5907 18.457C76.5907 22.7854 73.5365 25.7244 69.4643 25.7244ZM65.3385 18.457C65.3385 21.0754 66.9727 23.2129 69.4643 23.2129C71.9291 23.2129 73.5633 21.0754 73.5633 18.457C73.5633 15.8119 71.9291 13.6744 69.4643 13.6744C66.9727 13.6744 65.3385 15.8119 65.3385 18.457Z" fill="black"/>
<path d="M84.3379 13.9683C83.5342 13.995 82.8912 13.9683 82.0339 13.9683H77.2383V11.537H88.0886V13.621L80.4264 22.919C81.2034 22.919 81.9267 22.8923 82.7572 22.8923H88.3833V25.3504H76.7561V23.1595L84.3379 13.9683Z" fill="black"/>
<path d="M89.7765 15.7585C90.1248 13.5676 91.9733 11.1362 95.5901 11.1362C100.171 11.1362 101.431 13.8882 101.431 16.8539V22.1709C101.431 23.2129 101.484 24.5488 101.645 25.3504H98.4835C98.43 24.816 98.4032 24.2816 98.4032 23.7205V23.0793H98.3764C97.9209 24.2015 96.7421 25.6977 93.9827 25.6977C90.8481 25.6977 89.1067 23.774 89.1067 21.5831C89.1067 17.7623 93.7951 17.4417 95.8044 17.1211C97.5726 16.8539 98.3764 16.5066 98.3764 15.331C98.3764 14.2355 97.3315 13.5408 95.6437 13.5408C94.1434 13.5408 93.045 14.3958 92.7235 15.7585H89.7765ZM92.1877 21.4762C92.1877 22.5716 93.1253 23.3732 94.7596 23.3732C96.6082 23.3732 98.43 22.2243 98.43 18.938V17.4952C98.1353 18.27 97.4119 18.9379 95.0543 19.3922C93.1521 19.7395 92.1877 20.3273 92.1877 21.4762Z" fill="black"/>
<path d="M106.649 25.3504H103.541V6.27344H106.649V17.2547L112.114 11.537H115.838L110.051 17.4417L115.999 25.3504H112.275L107.962 19.5258L106.649 20.7815V25.3504Z" fill="black"/>
</g>
</g>
</svg>
