<svg width="10" height="10" viewBox="0 0 10 10" fill="none" xmlns="http://www.w3.org/2000/svg">
<path d="M4.99992 0.828125C5.93923 0.828125 6.84006 1.20126 7.50426 1.86546C8.16845 2.52965 8.54159 3.43048 8.54159 4.36979C8.54159 7.07813 6.24992 9.36979 4.99992 9.36979C3.74992 9.36979 1.45825 7.07813 1.45825 4.36979C1.45825 3.43048 1.83139 2.52965 2.49558 1.86546C3.15977 1.20126 4.06061 0.828125 4.99992 0.828125ZM7.29159 4.99479C7.02866 4.99478 6.76867 5.05007 6.52849 5.15707C6.28832 5.26407 6.07334 5.42039 5.8975 5.61587C5.72167 5.81135 5.58891 6.04163 5.50785 6.29175C5.42679 6.54187 5.39925 6.80625 5.427 7.06771C5.70509 7.09724 5.98627 7.06419 6.24993 6.97098C6.51359 6.87777 6.75306 6.72676 6.95081 6.52902C7.14855 6.33127 7.29956 6.0918 7.39277 5.82813C7.48598 5.56447 7.51903 5.2833 7.4895 5.00521C7.42376 4.99829 7.35769 4.99481 7.29159 4.99479ZM2.70825 4.99479C2.64159 4.99479 2.57534 4.99813 2.51034 5.00521C2.48081 5.2833 2.51386 5.56447 2.60707 5.82813C2.70028 6.0918 2.85128 6.33127 3.04903 6.52902C3.24677 6.72676 3.48625 6.87777 3.74991 6.97098C4.01357 7.06419 4.29475 7.09724 4.57284 7.06771C4.60059 6.80625 4.57304 6.54187 4.49199 6.29175C4.41093 6.04163 4.27817 5.81135 4.10234 5.61587C3.9265 5.42039 3.71152 5.26407 3.47134 5.15707C3.23117 5.05007 2.97118 4.99478 2.70825 4.99479Z" fill="#59B0F3"/>
</svg>
