<svg width="24" height="25" viewBox="0 0 24 25" fill="none" xmlns="http://www.w3.org/2000/svg">
<path d="M16.1667 2.29688H7.83333C4.61167 2.29688 2 4.90855 2 8.13021V16.4635C2 19.6852 4.61167 22.2969 7.83333 22.2969H16.1667C19.3883 22.2969 22 19.6852 22 16.4635V8.13021C22 4.90855 19.3883 2.29688 16.1667 2.29688Z" fill="#EBECF0"/>
<path d="M7.15588 5.40625H16.8448V19.184H15.4225V12.8729H15.4086C15.2514 11.1287 13.7855 9.76179 12.0003 9.76179C10.2152 9.76179 8.74924 11.1287 8.59204 12.8729H8.5781V19.184H7.15588V5.40625Z" fill="#2D2D2D"/>
<path d="M4.57776 7.35938L5.15554 9.31494H5.64442V17.2261C5.39896 17.2261 5.19998 17.425 5.19998 17.6705V18.2038H5.1111C4.86564 18.2038 4.66664 18.4028 4.66664 18.6483V19.1816H9.64442V18.6483C9.64442 18.4028 9.44544 18.2038 9.19998 18.2038H9.1111V17.6705C9.1111 17.425 8.9121 17.2261 8.66664 17.2261H8.13332V7.35938H4.57776Z" fill="#2D2D2D"/>
<path d="M15.5107 17.2261C15.2653 17.2261 15.0663 17.425 15.0663 17.6705V18.2038H14.9774C14.7319 18.2038 14.533 18.4028 14.533 18.6483V19.1816H19.5107V18.6483C19.5107 18.4028 19.3117 18.2038 19.0663 18.2038H18.9774V17.6705C18.9774 17.425 18.7784 17.2261 18.533 17.2261V9.31494H19.0218L19.5996 7.35938H16.0441V17.2261H15.5107Z" fill="#2D2D2D"/>
</svg>
