<svg width="10" height="10" viewBox="0 0 10 10" fill="none" xmlns="http://www.w3.org/2000/svg">
<path d="M2.91667 0.828125V9.16146H1.25V0.828125H2.91667ZM3.75 0.828125H7.91875C8.37792 0.828125 8.75 1.20229 8.75 1.65729V8.33229C8.75 8.79021 8.37792 9.16146 7.91875 9.16146H3.75V0.828125ZM9.16667 2.49479H10V4.16146H9.16667V2.49479ZM9.16667 4.99479H10V6.66146H9.16667V4.99479ZM6.25 4.99479C6.47101 4.99479 6.68297 4.90699 6.83926 4.75071C6.99554 4.59443 7.08333 4.38247 7.08333 4.16146C7.08333 3.94044 6.99554 3.72848 6.83926 3.5722C6.68297 3.41592 6.47101 3.32813 6.25 3.32812C6.02899 3.32813 5.81702 3.41592 5.66074 3.5722C5.50446 3.72848 5.41667 3.94044 5.41667 4.16146C5.41667 4.38247 5.50446 4.59443 5.66074 4.75071C5.81702 4.90699 6.02899 4.99479 6.25 4.99479ZM5 6.66146H7.5C7.5 6.32994 7.3683 6.012 7.13388 5.77758C6.89946 5.54315 6.58152 5.41146 6.25 5.41146C5.91848 5.41146 5.60054 5.54315 5.36612 5.77758C5.1317 6.012 5 6.32994 5 6.66146Z" fill="#FCBF04"/>
</svg>
