<svg xmlns="http://www.w3.org/2000/svg" width="12" height="12" viewBox="0 0 12 12" fill="none">
<g filter="url(#filter0_d_6059_15143)">
<path d="M4.93584 2.5L7.0644 2.5C8.85344 2.5 9.74796 2.5 10.1706 2.9953C10.3034 3.15089 10.4022 3.33378 10.4605 3.53174C10.6459 4.16192 10.1718 4.94002 9.22365 6.49622L8.15936 8.24296C7.30539 9.64454 6.8784 10.3453 6.28454 10.4704C6.09688 10.5099 5.90336 10.5099 5.7157 10.4704C5.12185 10.3453 4.69486 9.64454 3.84088 8.24296L2.7766 6.49622C1.82841 4.94002 1.35432 4.16192 1.53976 3.53174C1.59801 3.33378 1.69683 3.15089 1.82961 2.9953C2.25228 2.5 3.1468 2.5 4.93584 2.5Z" fill="#F68989"/>
</g>
</svg>