<svg width="12" height="12" viewBox="0 0 12 12" fill="none" xmlns="http://www.w3.org/2000/svg">
<path d="M3.5 3V1.5C3.5 1.36739 3.55268 1.24021 3.64645 1.14645C3.74021 1.05268 3.86739 1 4 1H10C10.1326 1 10.2598 1.05268 10.3536 1.14645C10.4473 1.24021 10.5 1.36739 10.5 1.5V8.5C10.5 8.63261 10.4473 8.75979 10.3536 8.85355C10.2598 8.94732 10.1326 9 10 9H8.5V10.5C8.5 10.776 8.275 11 7.9965 11H2.0035C1.93756 11.0004 1.8722 10.9878 1.81116 10.9628C1.75012 10.9379 1.69462 10.9011 1.64783 10.8546C1.60104 10.8082 1.5639 10.7529 1.53853 10.6921C1.51316 10.6312 1.50006 10.5659 1.5 10.5L1.5015 3.5C1.5015 3.224 1.7265 3 2.005 3H3.5ZM4.5 3H8.5V8H9.5V2H4.5V3Z" fill="#C3C6CC"/>
</svg>
