<svg width="10" height="10" viewBox="0 0 10 10" fill="none" xmlns="http://www.w3.org/2000/svg">
<g clip-path="url(#clip0_6059_15170)">
<path d="M5.41675 0.421875L5.41716 1.69771C6.15142 1.79054 6.83394 2.12497 7.35723 2.64834C7.88052 3.17171 8.21486 3.85427 8.30758 4.58854H9.58341V5.42187L8.30758 5.42229C8.21477 6.15649 7.8804 6.83896 7.35711 7.36224C6.83383 7.88552 6.15136 8.2199 5.41716 8.31271L5.41675 9.58854H4.58341V8.31271C3.84915 8.21998 3.16658 7.88565 2.64321 7.36236C2.11984 6.83906 1.78541 6.15655 1.69258 5.42229L0.416748 5.42187V4.58854H1.69258C1.78533 3.85421 2.11972 3.1716 2.6431 2.64822C3.16647 2.12485 3.84908 1.79045 4.58341 1.69771V0.421875H5.41675ZM5.00008 4.17187C4.77907 4.17187 4.56711 4.25967 4.41083 4.41595C4.25455 4.57223 4.16675 4.78419 4.16675 5.00521C4.16675 5.22622 4.25455 5.43818 4.41083 5.59446C4.56711 5.75074 4.77907 5.83854 5.00008 5.83854C5.22109 5.83854 5.43306 5.75074 5.58934 5.59446C5.74562 5.43818 5.83341 5.22622 5.83341 5.00521C5.83341 4.78419 5.74562 4.57223 5.58934 4.41595C5.43306 4.25967 5.22109 4.17187 5.00008 4.17187Z" fill="#59B0F3"/>
</g>
<defs>
<clipPath id="clip0_6059_15170">
<rect width="10" height="10" fill="white"/>
</clipPath>
</defs>
</svg>
