<svg width="10" height="10" viewBox="0 0 10 10" fill="none" xmlns="http://www.w3.org/2000/svg">
<g clip-path="url(#clip0_6059_15115)">
<path d="M0.833252 9.17188C0.833252 8.28782 1.18444 7.43997 1.80956 6.81485C2.43468 6.18973 3.28253 5.83854 4.16659 5.83854C5.05064 5.83854 5.89849 6.18973 6.52361 6.81485C7.14873 7.43997 7.49992 8.28782 7.49992 9.17188H0.833252ZM4.16659 5.42188C2.78534 5.42188 1.66659 4.30312 1.66659 2.92188C1.66659 1.54062 2.78534 0.421875 4.16659 0.421875C5.54784 0.421875 6.66659 1.54062 6.66659 2.92188C6.66659 4.30312 5.54784 5.42188 4.16659 5.42188ZM7.2345 6.35229C7.87185 6.5161 8.44128 6.87681 8.86172 7.38305C9.28216 7.8893 9.53217 8.51528 9.57617 9.17188H8.33325C8.33325 8.08437 7.91659 7.09437 7.2345 6.35229ZM6.39159 5.40396C6.74075 5.09166 7.01998 4.7091 7.21099 4.28135C7.40199 3.85361 7.50045 3.39033 7.49992 2.92188C7.5008 2.35249 7.35516 1.79245 7.077 1.29562C7.54893 1.39045 7.97346 1.64578 8.27844 2.01821C8.58342 2.39063 8.75001 2.85718 8.74992 3.33854C8.75003 3.6354 8.68669 3.92886 8.56413 4.19924C8.44158 4.46962 8.26264 4.71068 8.03932 4.90627C7.816 5.10185 7.55345 5.24744 7.26927 5.33328C6.98509 5.41911 6.68584 5.44321 6.39159 5.40396Z" fill="#FCBF04"/>
</g>
<defs>
<clipPath id="clip0_6059_15115">
<rect width="10" height="10" fill="white"/>
</clipPath>
</defs>
</svg>
