<svg width="10" height="10" viewBox="0 0 10 10" fill="none" xmlns="http://www.w3.org/2000/svg">
<path d="M3.88758 4.78646H4.79175C5.28903 4.78646 5.76594 4.984 6.11757 5.33563C6.4692 5.68726 6.66675 6.16418 6.66675 6.66146H3.74966L3.75008 7.07812H7.08342V6.66146C7.0821 6.21811 6.95401 5.78439 6.71425 5.41146H7.91675C8.31061 5.41135 8.69643 5.52289 9.02947 5.73314C9.36251 5.9434 9.62914 6.24375 9.79842 6.59937C8.813 7.89979 7.21758 8.74479 5.41675 8.74479C4.26633 8.74479 3.29175 8.49896 2.50008 8.06771V4.19104C3.007 4.26366 3.4857 4.46908 3.88758 4.78646ZM2.08341 7.91146C2.08341 8.02197 2.03952 8.12795 1.96138 8.20609C1.88324 8.28423 1.77725 8.32812 1.66675 8.32812H0.833415C0.722908 8.32812 0.616927 8.28423 0.538787 8.20609C0.460647 8.12795 0.416748 8.02197 0.416748 7.91146V4.16146C0.416748 4.05095 0.460647 3.94497 0.538787 3.86683C0.616927 3.78869 0.722908 3.74479 0.833415 3.74479H1.66675C1.77725 3.74479 1.88324 3.78869 1.96138 3.86683C2.03952 3.94497 2.08341 4.05095 2.08341 4.16146V7.91146ZM7.50008 2.07812C7.8316 2.07812 8.14954 2.20982 8.38397 2.44424C8.61839 2.67866 8.75008 2.9966 8.75008 3.32812C8.75008 3.65965 8.61839 3.97759 8.38397 4.21201C8.14954 4.44643 7.8316 4.57812 7.50008 4.57812C7.16856 4.57812 6.85062 4.44643 6.6162 4.21201C6.38178 3.97759 6.25008 3.65965 6.25008 3.32812C6.25008 2.9966 6.38178 2.67866 6.6162 2.44424C6.85062 2.20982 7.16856 2.07812 7.50008 2.07812ZM4.58342 0.828125C4.91494 0.828125 5.23288 0.959821 5.4673 1.19424C5.70172 1.42866 5.83342 1.7466 5.83342 2.07812C5.83342 2.40965 5.70172 2.72759 5.4673 2.96201C5.23288 3.19643 4.91494 3.32812 4.58342 3.32812C4.25189 3.32812 3.93395 3.19643 3.69953 2.96201C3.46511 2.72759 3.33341 2.40965 3.33341 2.07812C3.33341 1.7466 3.46511 1.42866 3.69953 1.19424C3.93395 0.959821 4.25189 0.828125 4.58342 0.828125Z" fill="#59B0F3"/>
</svg>
