<svg width="11" height="12" viewBox="0 0 11 12" fill="none" xmlns="http://www.w3.org/2000/svg">
<g clip-path="url(#clip0_6059_15094)">
<g clip-path="url(#clip1_6059_15094)">
<path fill-rule="evenodd" clip-rule="evenodd" d="M3.80098 4.29508C3.53613 4.16302 3.19913 3.96862 2.86173 3.70227C2.79059 3.85 2.7828 3.97892 2.81945 4.08302C2.84543 4.15638 2.89437 4.22019 2.95873 4.27096C3.02843 4.32582 3.11547 4.36576 3.21169 4.38735C3.39426 4.42847 3.60742 4.40446 3.80098 4.29508ZM3.75506 5.64821L3.40447 5.85072C4.12031 6.25193 4.31492 6.99692 4.54609 7.72255C4.77722 6.99692 4.97186 6.25193 5.68767 5.85072L5.33708 5.64821C5.30316 5.63539 5.27418 5.61217 5.25427 5.58187C5.23436 5.55156 5.22455 5.51574 5.22626 5.47952C5.25838 4.79996 5.07489 4.49944 4.82738 4.31075C4.73861 4.24316 4.6417 4.20922 4.54609 4.20922C4.45047 4.20922 4.35356 4.24316 4.26476 4.31075C4.01726 4.49944 3.83376 4.79996 3.86589 5.47952C3.86759 5.51574 3.85778 5.55156 3.83787 5.58187C3.81797 5.61217 3.78898 5.63539 3.75506 5.64821ZM4.54609 1.21094C4.14083 1.22182 3.73457 1.30049 3.38199 1.45353C3.13784 1.55965 2.91002 1.69982 2.70373 1.86744C2.61057 1.94311 2.53386 2.01622 2.44935 2.10037C2.22145 2.10825 1.88837 1.85506 1.73374 1.61815C1.99986 2.49059 3.21423 3.52086 4.05495 3.91508C4.05529 3.91494 4.05552 3.91474 4.05578 3.91456C4.20666 3.79936 4.37636 3.74175 4.54609 3.74175C4.71581 3.74175 4.88548 3.79936 5.03636 3.91456C5.03662 3.91471 5.03685 3.91497 5.03719 3.91508C5.87794 3.52086 7.09228 2.49059 7.3584 1.61815C7.2038 1.85506 6.87072 2.10825 6.64282 2.10037C6.55829 2.01624 6.48158 1.94311 6.38845 1.86744C6.18215 1.69982 5.95433 1.55965 5.71018 1.45353C5.35757 1.30049 4.95131 1.22182 4.54609 1.21094ZM5.29119 4.29508C5.55601 4.16302 5.89304 3.96862 6.23041 3.70227C6.30155 3.85 6.30934 3.97892 6.27272 4.08302C6.24671 4.15638 6.19777 4.22019 6.13344 4.27096C6.06371 4.32582 5.97667 4.36576 5.88045 4.38735C5.69789 4.42847 5.48475 4.40446 5.29119 4.29508Z" fill="#FCBF04"/>
<path fill-rule="evenodd" clip-rule="evenodd" d="M2.49154 3.37693C2.30579 3.18949 2.14213 2.98201 2.01053 2.79688L1.94369 2.92268C1.72851 3.35318 1.61671 3.78195 1.61671 4.26449L1.61717 5.0302L1.61313 5.42714C1.59754 6.40162 1.38669 7.38757 0.909061 8.28984L1.90839 7.48402L2.61549 8.63146L3.35835 7.93215L4.54541 9.85852L5.73248 7.93218L6.4753 8.63149L7.1824 7.48405L8.18176 8.28987C7.70413 7.38759 7.49328 6.40165 7.47767 5.42717L7.47363 5.03023L7.47409 4.26452C7.47409 3.78195 7.36231 3.35318 7.14708 2.9227L7.08027 2.7969C6.94866 2.98204 6.78503 3.18949 6.59926 3.37696L6.65727 3.49745C6.76996 3.73147 6.80728 3.99315 6.71949 4.24201C6.66289 4.40229 6.5596 4.53975 6.42644 4.64469C6.29715 4.74659 6.14414 4.81528 5.98393 4.85136C5.87958 4.87485 5.77326 4.88452 5.66763 4.88123C5.69228 5.02094 5.70304 5.16584 5.70373 5.31349L6.64641 5.85796L5.91897 6.26572C5.86083 6.29832 5.80548 6.33567 5.75349 6.37738C5.15375 6.91585 4.79317 8.50883 4.54538 9.28692C4.29756 8.50883 3.93702 6.91585 3.33725 6.37738C3.28526 6.33566 3.22991 6.29831 3.17177 6.26572L2.44432 5.85796L3.38703 5.31349C3.38772 5.16584 3.39849 5.02094 3.42314 4.88123C3.31751 4.88452 3.21119 4.87485 3.10683 4.85136C2.94663 4.81528 2.79359 4.74659 2.66432 4.64469C2.53119 4.53975 2.42787 4.40229 2.37131 4.24201C2.28349 3.99315 2.32083 3.7315 2.4335 3.49745L2.49151 3.37696L2.49154 3.37693Z" fill="#FCBF04"/>
</g>
</g>
<rect x="5.90922" y="6.40483" width="4.54545" height="4.54545" rx="2.27273" fill="#FCBF04"/>
<rect x="5.90922" y="6.40483" width="4.54545" height="4.54545" rx="2.27273" stroke="#654C01" stroke-width="0.909091"/>
<g clip-path="url(#clip2_6059_15094)">
<path d="M8.33349 8.37145H9.39409L8.03045 10.3411V8.97751H6.96985L8.33349 7.00781V8.37145Z" fill="#654C01"/>
</g>
<defs>
<clipPath id="clip0_6059_15094">
<rect width="9.09091" height="9.09091" fill="white" transform="translate(0 0.5)"/>
</clipPath>
<clipPath id="clip1_6059_15094">
<rect width="7.2727" height="8.65798" fill="white" transform="matrix(-1 0 0 1 8.18164 1.21094)"/>
</clipPath>
<clipPath id="clip2_6059_15094">
<rect width="3.63636" height="3.63636" fill="white" transform="translate(6.36377 6.85938)"/>
</clipPath>
</defs>
</svg>
