<svg width="10" height="10" viewBox="0 0 10 10" fill="none" xmlns="http://www.w3.org/2000/svg">
<path d="M5.41667 1.69479C7.29167 1.90187 8.75 3.49146 8.75 5.42188V9.17188H1.25V5.42188C1.25 3.49146 2.70833 1.90187 4.58333 1.69479V0.421875H5.41667V1.69479ZM5 7.50521C5.55253 7.50521 6.08244 7.28571 6.47314 6.89501C6.86384 6.50431 7.08333 5.97441 7.08333 5.42188C7.08333 4.86934 6.86384 4.33944 6.47314 3.94874C6.08244 3.55803 5.55253 3.33854 5 3.33854C4.44747 3.33854 3.91756 3.55803 3.52686 3.94874C3.13616 4.33944 2.91667 4.86934 2.91667 5.42188C2.91667 5.97441 3.13616 6.50431 3.52686 6.89501C3.91756 7.28571 4.44747 7.50521 5 7.50521ZM5 6.67188C4.66848 6.67188 4.35054 6.54018 4.11612 6.30576C3.8817 6.07134 3.75 5.7534 3.75 5.42188C3.75 5.09035 3.8817 4.77241 4.11612 4.53799C4.35054 4.30357 4.66848 4.17188 5 4.17188C5.33152 4.17188 5.64946 4.30357 5.88388 4.53799C6.1183 4.77241 6.25 5.09035 6.25 5.42188C6.25 5.7534 6.1183 6.07134 5.88388 6.30576C5.64946 6.54018 5.33152 6.67188 5 6.67188ZM5 5.83854C5.11051 5.83854 5.21649 5.79464 5.29463 5.7165C5.37277 5.63836 5.41667 5.53238 5.41667 5.42188C5.41667 5.31137 5.37277 5.20539 5.29463 5.12725C5.21649 5.04911 5.11051 5.00521 5 5.00521C4.88949 5.00521 4.78351 5.04911 4.70537 5.12725C4.62723 5.20539 4.58333 5.31137 4.58333 5.42188C4.58333 5.53238 4.62723 5.63836 4.70537 5.7165C4.78351 5.79464 4.88949 5.83854 5 5.83854Z" fill="#59B0F3"/>
</svg>
