<svg width="10" height="10" viewBox="0 0 10 10" fill="none" xmlns="http://www.w3.org/2000/svg">
<path d="M8.3679 4.37346L8.86873 4.67388C8.89963 4.69238 8.9252 4.71857 8.94296 4.74989C8.96072 4.78122 8.97005 4.81662 8.97005 4.85263C8.97005 4.88864 8.96072 4.92404 8.94296 4.95536C8.9252 4.98669 8.89963 5.01288 8.86873 5.03138L4.99998 7.35263L1.13123 5.03138C1.10033 5.01288 1.07476 4.98669 1.057 4.95536C1.03924 4.92404 1.02991 4.88864 1.02991 4.85263C1.02991 4.81662 1.03924 4.78122 1.057 4.74989C1.07476 4.71857 1.10033 4.69238 1.13123 4.67388L1.63206 4.37346L4.99998 6.3943L8.3679 4.37346ZM8.3679 6.3318L8.86873 6.63221C8.89963 6.65071 8.9252 6.6769 8.94296 6.70823C8.96072 6.73956 8.97005 6.77495 8.97005 6.81096C8.97005 6.84697 8.96072 6.88237 8.94296 6.9137C8.9252 6.94503 8.89963 6.97122 8.86873 6.98971L5.21456 9.18221C5.14976 9.22115 5.07558 9.24172 4.99998 9.24172C4.92438 9.24172 4.8502 9.22115 4.7854 9.18221L1.13123 6.98971C1.10033 6.97122 1.07476 6.94503 1.057 6.9137C1.03924 6.88237 1.02991 6.84697 1.02991 6.81096C1.02991 6.77495 1.03924 6.73956 1.057 6.70823C1.07476 6.6769 1.10033 6.65071 1.13123 6.63221L1.63206 6.3318L4.99998 8.35263L8.3679 6.3318ZM5.21415 0.543879L8.86873 2.73638C8.89963 2.75488 8.9252 2.78107 8.94296 2.81239C8.96072 2.84372 8.97005 2.87912 8.97005 2.91513C8.97005 2.95114 8.96072 2.98654 8.94296 3.01786C8.9252 3.04919 8.89963 3.07538 8.86873 3.09388L4.99998 5.41513L1.13123 3.09388C1.10033 3.07538 1.07476 3.04919 1.057 3.01786C1.03924 2.98654 1.02991 2.95114 1.02991 2.91513C1.02991 2.87912 1.03924 2.84372 1.057 2.81239C1.07476 2.78107 1.10033 2.75488 1.13123 2.73638L4.7854 0.543879C4.8502 0.504944 4.92438 0.484375 4.99998 0.484375C5.07558 0.484375 5.14976 0.504944 5.21456 0.543879H5.21415Z" fill="#59B0F3"/>
</svg>
