<svg width="24" height="25" viewBox="0 0 24 25" fill="none" xmlns="http://www.w3.org/2000/svg">
<path d="M12 22.2969C6.477 22.2969 2 17.8199 2 12.2969C2 6.77388 6.477 2.29688 12 2.29688C17.523 2.29688 22 6.77388 22 12.2969C22 17.8199 17.523 22.2969 12 22.2969ZM8.89 13.4669L8.903 13.4599L9.773 16.3299C9.885 16.6409 10.039 16.6969 10.226 16.6709C10.414 16.6459 10.513 16.5449 10.636 16.4269L11.824 15.2789L14.374 17.1669C14.84 17.4239 15.175 17.2909 15.291 16.7349L16.948 8.91288C17.131 8.18488 16.811 7.89288 16.246 8.12488L6.513 11.8849C5.849 12.1509 5.853 12.5229 6.393 12.6879L8.89 13.4679V13.4669Z" fill="#EBECF0"/>
</svg>
