<svg xmlns="http://www.w3.org/2000/svg" width="24" height="25" viewBox="0 0 24 25" fill="none">
<g filter="url(#filter0_d_6059_15235)">
<path d="M16.4395 2.29688C19.7655 2.29709 22 4.63622 22 8.11816V16.4756C22 19.9566 19.7638 22.2969 16.4375 22.2969H7.55957C4.23458 22.2966 2 19.9565 2 16.4756V8.11816C2 4.63623 4.23458 2.2971 7.55957 2.29688H16.4395ZM6 6.89062L10.5371 12.8232L6.2373 17.7373H8.07812L11.3965 13.9453L14.2969 17.7373H18L13.2705 11.4854L17.291 6.89062H15.4512L12.4189 10.3564L9.79688 6.89062H6ZM9.24316 7.93457L15.8242 16.6357H14.8047L8.14844 7.93457H9.24316Z" fill="#EBECF0"/>
</g>
</svg>