<svg width="12" height="13" viewBox="0 0 12 13" fill="none" xmlns="http://www.w3.org/2000/svg">
<g filter="url(#filter0_d_6059_15106)">
<path d="M8.21973 1C9.88264 1.00011 10.9998 2.16939 11 3.91016V8.08984C10.9998 9.83016 9.88179 11 8.21875 11H3.78027C2.11776 11 1.00016 9.83016 1 8.08984V3.91016C1.00016 2.16931 2.11776 1 3.78027 1H8.21973ZM3 3.29688L5.26855 6.2627L3.11816 8.7207H4.03906L5.69824 6.82422L7.14844 8.7207H9L6.63574 5.59375L8.64551 3.29688H7.72559L6.20898 5.03027L4.89844 3.29688H3ZM4.62109 3.81836L7.91211 8.16992H7.40234L4.07422 3.81836H4.62109Z" fill="#C3C6CC"/>
</g>
<rect x="6" y="6" width="6" height="6" rx="3" fill="#0A0C11"/>
<path d="M10.3705 10.0801L11.2501 10.9595L10.9595 11.2501L10.0801 10.3705C9.75288 10.6328 9.34588 10.7755 8.9265 10.7749C7.9062 10.7749 7.07812 9.9468 7.07812 8.9265C7.07812 7.9062 7.9062 7.07812 8.9265 7.07812C9.9468 7.07812 10.7749 7.9062 10.7749 8.9265C10.7755 9.34588 10.6328 9.75288 10.3705 10.0801ZM9.16843 8.14135C8.99312 8.08738 8.80479 8.09363 8.63344 8.15912C8.46209 8.22461 8.3176 8.34556 8.22297 8.5027C8.12834 8.65984 8.08903 8.84413 8.11129 9.02621C8.13356 9.20828 8.21612 9.37767 8.34583 9.50738C8.47554 9.63708 8.64492 9.71965 8.827 9.74191C9.00908 9.76418 9.19337 9.72487 9.35051 9.63024C9.50765 9.53561 9.6286 9.39111 9.69408 9.21977C9.75957 9.04842 9.76583 8.86009 9.71185 8.68477C9.68446 8.7453 9.6428 8.79828 9.59044 8.83916C9.53808 8.88005 9.47658 8.90763 9.41122 8.91953C9.34587 8.93143 9.2786 8.9273 9.21518 8.9075C9.15177 8.88769 9.09411 8.8528 9.04714 8.80581C9.00017 8.75883 8.9653 8.70115 8.94552 8.63773C8.92574 8.57431 8.92164 8.50704 8.93356 8.44169C8.94549 8.37633 8.97309 8.31485 9.014 8.2625C9.0549 8.21016 9.1079 8.16851 9.16843 8.14115V8.14135Z" fill="#C3C6CC"/>
<defs>
<filter id="filter0_d_6059_15106" x="-0.5" y="0" width="13" height="13.5" filterUnits="userSpaceOnUse" color-interpolation-filters="sRGB">
<feFlood flood-opacity="0" result="BackgroundImageFix"/>
<feColorMatrix in="SourceAlpha" type="matrix" values="0 0 0 0 0 0 0 0 0 0 0 0 0 0 0 0 0 0 127 0" result="hardAlpha"/>
<feMorphology radius="0.5" operator="erode" in="SourceAlpha" result="effect1_dropShadow_6059_15106"/>
<feOffset dy="1"/>
<feGaussianBlur stdDeviation="0.5"/>
<feComposite in2="hardAlpha" operator="out"/>
<feColorMatrix type="matrix" values="0 0 0 0 0 0 0 0 0 0 0 0 0 0 0 0 0 0 0.03 0"/>
<feBlend mode="normal" in2="BackgroundImageFix" result="effect1_dropShadow_6059_15106"/>
<feBlend mode="normal" in="SourceGraphic" in2="effect1_dropShadow_6059_15106" result="shape"/>
</filter>
</defs>
</svg>
