<svg xmlns="http://www.w3.org/2000/svg" width="12" height="12" viewBox="0 0 12 12" fill="none">
<g filter="url(#filter0_d_6059_15137)">
<path d="M7.0644 9.5L4.93584 9.5C3.1468 9.5 2.25228 9.5 1.82961 9.0047C1.69683 8.84911 1.59801 8.66622 1.53976 8.46826C1.35432 7.83808 1.82841 7.05998 2.7766 5.50378L3.84088 3.75704C4.69486 2.35545 5.12185 1.65466 5.7157 1.52963C5.90336 1.49012 6.09688 1.49012 6.28454 1.52963C6.8784 1.65466 7.30539 2.35546 8.15937 3.75704L9.22365 5.50378C10.1718 7.05998 10.6459 7.83808 10.4605 8.46826C10.4022 8.66621 10.3034 8.84911 10.1706 9.0047C9.74796 9.5 8.85344 9.5 7.0644 9.5Z" fill="#7FE76F"/>
</g>
</svg>