<svg width="10" height="10" viewBox="0 0 10 10" fill="none" xmlns="http://www.w3.org/2000/svg">
<path d="M5.00008 5.83854V9.17188H1.66675C1.66675 8.28782 2.01794 7.43997 2.64306 6.81485C3.26818 6.18973 4.11603 5.83854 5.00008 5.83854ZM5.00008 5.42188C3.61883 5.42188 2.50008 4.30312 2.50008 2.92188C2.50008 1.54062 3.61883 0.421875 5.00008 0.421875C6.38133 0.421875 7.50008 1.54062 7.50008 2.92188C7.50008 4.30312 6.38133 5.42188 5.00008 5.42188ZM6.08133 7.84354C6.0285 7.62122 6.0285 7.38961 6.08133 7.16729L5.668 6.92854L6.08466 6.20687L6.498 6.44562C6.6639 6.28849 6.86444 6.17259 7.08341 6.10729V5.63021H7.91675V6.10729C8.13841 6.17313 8.33841 6.29062 8.50216 6.44562L8.9155 6.20687L9.33216 6.92854L8.91883 7.16729C8.9716 7.38948 8.9716 7.62094 8.91883 7.84313L9.33216 8.08188L8.9155 8.80354L8.50216 8.56479C8.33626 8.72192 8.13572 8.83782 7.91675 8.90312V9.38021H7.08341V8.90312C6.86444 8.83782 6.6639 8.72192 6.498 8.56479L6.08466 8.80354L5.668 8.08188L6.08133 7.84354ZM7.50008 7.08854C7.38957 7.08854 7.28359 7.13244 7.20545 7.21058C7.12731 7.28872 7.08341 7.3947 7.08341 7.50521C7.08341 7.61572 7.12731 7.7217 7.20545 7.79984C7.28359 7.87798 7.38957 7.92188 7.50008 7.92188C7.61059 7.92188 7.71657 7.87798 7.79471 7.79984C7.87285 7.7217 7.91675 7.61572 7.91675 7.50521C7.91675 7.3947 7.87285 7.28872 7.79471 7.21058C7.71657 7.13244 7.61059 7.08854 7.50008 7.08854Z" fill="#59B0F3"/>
</svg>
