<svg width="10" height="10" viewBox="0 0 10 10" fill="none" xmlns="http://www.w3.org/2000/svg">
<path d="M9.16658 2.5H6.24992C5.58688 2.5 4.95099 2.76339 4.48215 3.23223C4.01331 3.70107 3.74992 4.33696 3.74992 5C3.74992 5.66304 4.01331 6.29893 4.48215 6.76777C4.95099 7.23661 5.58688 7.5 6.24992 7.5H9.16658V8.33333C9.16658 8.44384 9.12269 8.54982 9.04455 8.62796C8.96641 8.7061 8.86042 8.75 8.74992 8.75H1.24992C1.13941 8.75 1.03343 8.7061 0.955291 8.62796C0.877151 8.54982 0.833252 8.44384 0.833252 8.33333V1.66667C0.833252 1.55616 0.877151 1.45018 0.955291 1.37204C1.03343 1.2939 1.13941 1.25 1.24992 1.25H8.74992C8.86042 1.25 8.96641 1.2939 9.04455 1.37204C9.12269 1.45018 9.16658 1.55616 9.16658 1.66667V2.5ZM6.24992 3.33333H9.58325V6.66667H6.24992C5.80789 6.66667 5.38397 6.49107 5.07141 6.17851C4.75885 5.86595 4.58325 5.44203 4.58325 5C4.58325 4.55797 4.75885 4.13405 5.07141 3.82149C5.38397 3.50893 5.80789 3.33333 6.24992 3.33333ZM6.24992 4.58333V5.41667H7.49992V4.58333H6.24992Z" fill="#FCBF04"/>
</svg>
